<svg viewBox="0 0 16 15.6" height="20px" xmlns="http://www.w3.org/2000/svg"><path d="M 7.999 0 C 3.582 0 0 3.581 0 8.001 C 0 11.534 2.292 14.533 5.471 15.591 C 5.871 15.664 6.017 15.418 6.017 15.205 C 6.017 15.016 6.01 14.512 6.007 13.844 C 3.781 14.328 3.312 12.772 3.312 12.772 C 2.948 11.849 2.424 11.602 2.424 11.602 C 1.697 11.107 2.478 11.116 2.478 11.116 C 3.281 11.172 3.704 11.94 3.704 11.94 C 4.417 13.163 5.576 12.809 6.032 12.605 C 6.105 12.088 6.311 11.736 6.54 11.536 C 4.764 11.333 2.897 10.648 2.897 7.582 C 2.897 6.709 3.208 5.994 3.72 5.436 C 3.638 5.233 3.363 4.419 3.799 3.318 C 3.799 3.318 4.471 3.103 5.999 4.139 C 6.637 3.961 7.32 3.872 8.001 3.869 C 8.68 3.872 9.364 3.961 10.003 4.138 C 11.531 3.103 12.201 3.317 12.201 3.317 C 12.637 4.418 12.363 5.232 12.281 5.435 C 12.793 5.993 13.103 6.708 13.103 7.581 C 13.103 10.654 11.233 11.33 9.451 11.528 C 9.739 11.776 9.994 12.263 9.994 13.009 C 9.994 14.078 9.984 14.941 9.984 15.204 C 9.984 15.419 10.128 15.667 10.534 15.589 C 13.71 14.529 16 11.532 16 7.999 C 16 3.582 12.418 0 7.999 0 Z"/></svg>
