<svg xmlns="http://www.w3.org/2000/svg" viewbox="0 0 100 59.39" height="16"><path d="M97.703 4.047c.694-2.318 0-4.021-3.309-4.021h-10.94c-2.781 0-4.064 1.471-4.76 3.093 0 0-5.562 13.561-13.443 22.37-2.55 2.549-3.709 3.36-5.1 3.36-.695 0-1.702-.811-1.702-3.129V4.047c0-2.782-.807-4.021-3.125-4.021H38.132c-1.738 0-2.783 1.29-2.783 2.514 0 2.638 3.94 3.246 4.346 10.663v16.11c0 3.532-.638 4.173-2.028 4.173-3.709 0-12.73-13.622-18.08-29.207-1.05-3.03-2.1-4.253-4.897-4.253H3.75C.625.026 0 1.497 0 3.119c0 2.899 3.708 17.27 17.268 36.277 9.04 12.98 21.777 20.017 33.367 20.017 6.954 0 7.814-1.563 7.814-4.255v-9.81c0-3.126.659-3.75 2.86-3.75 1.623 0 4.405.811 10.895 7.07 7.418 7.418 8.641 10.745 12.813 10.745h10.94c3.126 0 4.688-1.563 3.787-4.647-.986-3.074-4.529-7.534-9.227-12.82-2.55-3.014-6.375-6.258-7.534-7.881-1.623-2.086-1.159-3.014 0-4.868 0 0 13.329-18.775 14.72-25.15"/></svg>
