<svg xmlns="http://www.w3.org/2000/svg" viewbox="0 0 100 95.43" height="16px"><path d="M40.122 45.365c-4.184.918-9.067 2.975-12.683 3.733-6.017 1.261-10.668.436-16.096 2.811-6.961 3.047-8.438 10.736-6.226 14.969 1.648 3.155 2.914 4.588 5.453 6.395 3.212 2.286 5.42 3.294 8.346 4.17 4.192 1.257 11.099 2.369 12.243 2.526 4.968.684 6.507 1.563 12.09 6.916 8.704 8.347 18.739 8.54 23.06.442 1.674-3.14 1.573-9.79-.562-13.427-1.454-2.475-2.79-5.335-4.033-8.137-1.243-2.802-2.112-6.814-2.315-7.924-1.939-10.612-9.188-14.687-19.277-12.474zM95.215 51.257c-2.93 1.518-3.568 1.307-6.033 2.052-5.44 1.643-12.613 7.207-15.091 12.117-6.135 12.152 10.306 17.786 18.554 6.21 3.657-5.13 2.598-8.899 3.276-12.179.437-2.11.616-3.186 1.67-4.528 2.409-3.066.71-5.332-2.376-3.672zM86.634 16.515c-2.207 2.224-5.3 3.084-6.62 3.042-4.127-.133-11.366 4.049-14.325 8.015-7.547 10.116-4.302 17.37 6.954 15.549 4.7-.761 11.343-5.009 13.544-9.47 1.546-3.138 1.844-6.39 2.478-9.717.217-1.144 1.073-3.254 1.452-4.161 1.817-4.34-.768-5.994-3.483-3.258zM47.73 4.348c-1.177.79-2.434 1.776-3.999 2.286-3.267 1.063-7.599 8.665-8.586 13.798-2.82 14.647 12.826 18.844 19.16 5.139 2.242-4.853 2.695-12.521.908-15.359-.513-.815-1.061-3.459-1.275-6.084C53.6 0 51.819 1.6 47.73 4.348zM19.487 6.008c-.832.757-3.973 2.914-6.003 3.74C6.352 12.65 0 21.892.418 29.778c.694 13.117 16.524 15.56 22.109 3.411 1.966-4.276 2.321-8.963 1.566-14.058-1.067-7.199-.21-12.37-.977-13.629-.476-.78-1.407-1.514-3.629.506z"/></svg>
