<svg viewBox="0 0 16 13" height="16px" xmlns="http://www.w3.org/2000/svg"><path d="M 16 1.54 C 15.412 1.801 14.778 1.978 14.115 2.057 C 14.792 1.65 15.313 1.008 15.558 0.241 C 14.924 0.617 14.221 0.891 13.474 1.037 C 12.876 0.399 12.022 0 11.078 0 C 9.264 0 7.795 1.47 7.795 3.283 C 7.795 3.54 7.824 3.791 7.88 4.031 C 5.151 3.895 2.732 2.588 1.112 0.602 C 0.83 1.087 0.669 1.65 0.669 2.252 C 0.669 3.39 1.248 4.395 2.129 4.985 C 1.59 4.968 1.084 4.82 0.642 4.574 C 0.642 4.588 0.642 4.601 0.642 4.615 C 0.642 6.205 1.773 7.533 3.275 7.834 C 3 7.909 2.71 7.949 2.41 7.949 C 2.199 7.949 1.993 7.928 1.793 7.89 C 2.211 9.194 3.423 10.144 4.86 10.17 C 3.737 11.051 2.321 11.576 0.783 11.576 C 0.518 11.576 0.257 11.561 0 11.529 C 1.453 12.461 3.179 13.004 5.033 13.004 C 11.072 13.004 14.374 8.002 14.374 3.663 C 14.374 3.521 14.371 3.379 14.365 3.239 C 15.003 2.777 15.56 2.199 16 1.54 Z"/>
</svg>
